{
	"asset":{
		"generator":"Khronos glTF Blender I/O v5.1.20",
		"version":"2.0"
	},
	"scene":0,
	"scenes":[
		{
			"name":"Scene",
			"nodes":[
				0
			]
		}
	],
	"nodes":[
		{
			"mesh":0,
			"name":"Cube",
			"scale":[
				0.5,
				0.5,
				0.5
			]
		}
	],
	"materials":[
		{
			"doubleSided":true,
			"name":"Material",
			"pbrMetallicRoughness":{
				"baseColorFactor":[
					0.800000011920929,
					0.800000011920929,
					0.800000011920929,
					1
				],
				"metallicFactor":0,
				"roughnessFactor":0.5
			}
		}
	],
	"meshes":[
		{
			"name":"Cube",
			"primitives":[
				{
					"attributes":{
						"POSITION":0,
						"NORMAL":1,
						"TEXCOORD_0":2,
						"TANGENT":3
					},
					"indices":4,
					"material":0
				}
			]
		}
	],
	"accessors":[
		{
			"bufferView":0,
			"componentType":5126,
			"count":245,
			"max":[
				1,
				1,
				1
			],
			"min":[
				-1,
				-1,
				-1
			],
			"type":"VEC3"
		},
		{
			"bufferView":1,
			"componentType":5126,
			"count":245,
			"type":"VEC3"
		},
		{
			"bufferView":2,
			"componentType":5126,
			"count":245,
			"type":"VEC2"
		},
		{
			"bufferView":3,
			"componentType":5126,
			"count":245,
			"type":"VEC4"
		},
		{
			"bufferView":4,
			"componentType":5123,
			"count":1284,
			"type":"SCALAR"
		}
	],
	"bufferViews":[
		{
			"buffer":0,
			"byteLength":2940,
			"byteOffset":0,
			"target":34962
		},
		{
			"buffer":0,
			"byteLength":2940,
			"byteOffset":2940,
			"target":34962
		},
		{
			"buffer":0,
			"byteLength":1960,
			"byteOffset":5880,
			"target":34962
		},
		{
			"buffer":0,
			"byteLength":3920,
			"byteOffset":7840,
			"target":34962
		},
		{
			"buffer":0,
			"byteLength":2568,
			"byteOffset":11760,
			"target":34963
		}
	],
	"buffers":[
		{
			"byteLength":14328,
			"uri":"cube-9ebd96114d5bcdb5023e8345dbc3a5d9.bin"
		}
	]
}
